<svg version="1.1" id="Layer_1" xmlns="http://www.w3.org/2000/svg" xmlns:xlink="http://www.w3.org/1999/xlink" x="0px" y="0px"
	 viewBox="201 0 241 294" enable-background="new 201 0 241 294" xml:space="preserve">
<g>
	<path style="fill:#fff;" d="M420.8,187.7l11.7-1.9l-10.7-67.1l-9.5,1.5L406,99.1l5.2-9.1L402,74h-43.3v-4.2h19.6V3.3H354v20.4h-59.5V3.3h-24.3v66.5
		h19.6V74h-43.3L237.3,90l5,8.6l-6.6,22l-9.5-1.5l-10.7,67.1l11.7,1.9L233,201l-6.8,11.8l8.6,14.9H250v-6.4h-11.6l-4.9-8.5l4.9-8.5
		h9.8l5.8,10.1l5.5-3.2l-7.7-13.3h-13.2l-3.9-8.7l5.5,0.9L251,123l-8.9-1.4l4.7-15.4l34.1,59.1h3.7v16.1h-3.9
		c-10.7,0-19.4,8.7-19.4,19.4v50.4c0,2.6,0.5,5.1,1.5,7.4c-6.4,2.2-11,8.2-11,15.4v10.5h72.2v-10.5c0-7.1-4.6-13.1-11-15.4
		c0.9-2.3,1.5-4.8,1.5-7.4v-50.4c0-10.7-8.7-19.4-19.4-19.4h-3.9v-16.1h66.8v16.2h-3.9c-10.7,0-19.4,8.7-19.4,19.5v50.4
		c0,2.6,0.5,5.1,1.5,7.4c-6.4,2.2-11,8.2-11,15.4v10.5H397v-10.5c0-7.1-4.6-13.1-11-15.4c0.9-2.3,1.5-4.8,1.5-7.4V201
		c0-10.7-8.7-19.5-19.4-19.5h-3.9v-16.2h3.7l33.9-58.6l4.4,14.5l-8.9,1.4l10.7,67.1l5.5-0.9l-3.9,8.7h-13.2l-7.7,13.3l5.5,3.2
		l5.8-10.1h9.8l4.9,8.5l-4.9,8.4H398v6.4h15.3l8.6-14.8l-6.8-11.8L420.8,187.7z M235,182.8l-12.2-1.9l8.6-54.5l12.2,1.9L235,182.8z
		 M317.3,274.1v4.1h-59.4v-4.1c0-4.9,3.5-8.9,8.2-9.8c3.6,3.9,8.7,6.4,14.4,6.4h14.2c5.7,0,10.9-2.5,14.4-6.4
		C313.8,265.2,317.3,269.2,317.3,274.1z M307.8,200.9v50.4c0,7.2-5.9,13-13,13h-14.2c-7.2,0-13-5.8-13-13v-50.4c0-7.2,5.9-13,13-13
		h14.2C302,187.8,307.8,193.7,307.8,200.9z M390.6,274.2v4.1h-59.4v-4.1c0-4.9,3.5-8.9,8.2-9.8c3.6,3.9,8.7,6.4,14.4,6.4H368
		c5.7,0,10.9-2.5,14.4-6.4C387,265.3,390.6,269.3,390.6,274.2z M381,201v50.4c0,7.2-5.9,13-13,13h-14.2c-7.2,0-13-5.8-13-13V201
		c0-7.2,5.9-13.1,13-13.1H368C375.2,187.9,381,193.8,381,201z M276.6,9.7h11.5v20.4h72.3V9.7h11.5v53.7h-95.3V9.7z M296.3,69.8h56
		V74h-56V69.8z M364.1,159h-79.6L244.7,90l5.6-9.7h148l5.6,9.7L364.1,159z M404.4,128l12.2-1.9l8.6,54.5l-12.2,1.9L404.4,128z"/>
	<path style="fill:#fff;" d="M324.3,84.1c-19.9,0-36.2,16.2-36.2,36.2s16.2,36.2,36.2,36.2c19.9,0,36.2-16.2,36.2-36.2S344.2,84.1,324.3,84.1z
		 M324.3,150c-16.4,0-29.8-13.4-29.8-29.8c0-15.3,11.7-28,26.6-29.6V124h6.4V90.7c14.9,1.6,26.6,14.3,26.6,29.6
		C354,136.7,340.7,150,324.3,150z"/>
	<path style="fill:#fff;" d="M304,38.7c-5.2,0-9.4,4.2-9.4,9.4c0,5.2,4.2,9.4,9.4,9.4c5.2,0,9.4-4.2,9.4-9.4C313.4,42.9,309.2,38.7,304,38.7z M304,51.1
		c-1.6,0-3-1.3-3-3c0-1.6,1.3-3,3-3c1.6,0,3,1.3,3,3C307,49.8,305.6,51.1,304,51.1z"/>
	<path style="fill:#fff;" d="M344.5,38.7c-5.2,0-9.4,4.2-9.4,9.4c0,5.2,4.2,9.4,9.4,9.4c5.2,0,9.4-4.2,9.4-9.4C353.9,42.9,349.7,38.7,344.5,38.7z
		 M344.5,51.1c-1.6,0-3-1.3-3-3c0-1.6,1.3-3,3-3c1.7,0,3,1.3,3,3S346.2,51.1,344.5,51.1z"/>
</g>
</svg>
