<svg height="512pt" viewBox="-34 0 512 512.10604" width="512pt" xmlns="http://www.w3.org/2000/svg"><path d="m76.851562 213.4375h8.535157v85.335938h-8.535157c-18.851562 0-34.132812-15.28125-34.132812-34.132813v-17.066406c0-18.851563 15.28125-34.136719 34.132812-34.136719zm0 0" fill="#e8edfc"/><path d="m366.988281 298.773438h-17.070312v-85.335938h17.070312c18.847657 0 34.132813 15.285156 34.132813 34.136719v17.066406c0 18.851563-15.285156 34.132813-34.132813 34.132813zm0 0" fill="#e8edfc"/><path d="m247.519531 25.707031c0 14.136719-11.460937 25.597657-25.601562 25.597657-14.136719 0-25.597657-11.460938-25.597657-25.597657 0-14.140625 11.460938-25.601562 25.597657-25.601562 14.140625 0 25.601562 11.460937 25.601562 25.601562zm0 0" fill="#e8edfc"/><path d="m366.988281 221.972656v85.332032h-290.136719v-85.332032c-.050781-75.171875 57.382813-137.90625 132.269532-144.46875 4.253906-.417968 8.523437-.617187 12.796875-.597656 80.121093 0 145.070312 64.949219 145.070312 145.066406zm0 0" fill="#cad9fc"/><path d="m341.386719 221.972656v85.332032h-264.535157v-85.332032c-.050781-75.171875 57.382813-137.90625 132.269532-144.46875 74.882812 6.5625 132.316406 69.296875 132.265625 144.46875zm0 0" fill="#e8edfc"/><path d="m392.585938 324.371094v17.066406h-341.332032v-17.066406c0-14.136719 11.460938-25.597656 25.597656-25.597656h290.136719c14.136719 0 25.597657 11.460937 25.597657 25.597656zm0 0" fill="#7facfa"/><path d="m366.988281 324.371094v17.066406h-315.734375v-17.066406c0-14.136719 11.460938-25.597656 25.597656-25.597656h264.535157c14.136719 0 25.601562 11.460937 25.601562 25.597656zm0 0" fill="#a4c2f7"/><path d="m170.71875 221.972656c0 14.136719-11.460938 25.601563-25.597656 25.601563-14.140625 0-25.601563-11.464844-25.601563-25.601563 0-14.136718 11.460938-25.601562 25.601563-25.601562 14.136718 0 25.597656 11.464844 25.597656 25.601562zm0 0" fill="#cad9fc"/><path d="m324.320312 221.972656c0 14.136719-11.460937 25.601563-25.601562 25.601563-14.136719 0-25.597656-11.464844-25.597656-25.601563 0-14.136718 11.460937-25.601562 25.597656-25.601562 14.140625 0 25.601562 11.464844 25.601562 25.601562zm0 0" fill="#cad9fc"/><path d="m426.71875 349.972656v153.601563h-409.597656v-153.601563c.027344-9.414062 7.652344-17.039062 17.066406-17.066406h375.464844c9.414062.027344 17.039062 7.652344 17.066406 17.066406zm0 0" fill="#cad9fc"/><path d="m401.121094 349.972656v153.601563h-384v-153.601563c.027344-9.414062 7.652344-17.039062 17.066406-17.066406h349.867188c9.414062.027344 17.035156 7.652344 17.066406 17.066406zm0 0" fill="#e8edfc"/><path d="m102.453125 503.574219v-119.46875c0-9.425781 7.640625-17.066407 17.066406-17.066407h204.800781c9.425782 0 17.066407 7.640626 17.066407 17.066407v119.46875" fill="#e8edfc"/><path d="m209.121094 77.503906c-71.597656 6.308594-127.730469 64.179688-131.859375 135.933594h-.410157c-18.851562 0-34.132812 15.285156-34.132812 34.136719v17.066406c0 18.851563 15.28125 34.132813 34.132812 34.132813-14.136718 0-25.597656 11.460937-25.597656 25.597656v8.535156h-17.066406c-9.414062.027344-17.039062 7.652344-17.066406 17.066406v153.601563h25.597656v-153.601563c.027344-9.414062 7.652344-17.039062 17.066406-17.066406h17.066406v-8.535156c0-14.136719 11.464844-25.597656 25.601563-25.597656-18.851563 0-34.132813-15.28125-34.132813-34.132813v-17.066406c0-18.851563 15.28125-34.136719 34.132813-34.136719h.410156c4.125-71.648438 60.109375-129.46875 131.59375-135.898438" fill="#fff"/><path d="m25.652344 349.972656v153.601563h-17.066406v-153.601563zm0 0" fill="#fff"/><g fill="#428dff"><path d="m17.121094 426.773438c3.464844.019531 6.601562-2.058594 7.929687-5.261719s.589844-6.890625-1.871093-9.332031l-1.28125-1.023438c-.476563-.324219-.992188-.582031-1.535157-.765625-.484375-.25-1.003906-.421875-1.535156-.515625-.566406-.09375-1.136719-.148438-1.707031-.167969-2.261719.03125-4.425782.914063-6.058594 2.472657-.773438.816406-1.382812 1.773437-1.792969 2.816406-1.289062 3.183594-.585937 6.824218 1.792969 9.300781.8125.773437 1.769531 1.378906 2.816406 1.792969 1.023438.4375 2.125.667968 3.242188.683594zm0 0"/><path d="m409.652344 264.640625h8.535156c14.136719 0 25.597656-11.460937 25.597656-25.601563v-34.132812c0-4.714844-3.820312-8.535156-8.53125-8.535156-4.714844 0-8.535156 3.820312-8.535156 8.535156v34.132812c0 4.714844-3.820312 8.535157-8.53125 8.535157h-8.535156c-.039063-20.574219-14.75-38.1875-34.984375-41.890625-8.121094-74.792969-69.183594-132.71875-144.300781-136.882813 0-.144531.085937-.273437.085937-.429687v-18.636719c11.753906-4.15625 18.804687-16.175781 16.699219-28.464844-2.109375-12.289062-12.765625-21.269531-25.234375-21.269531-12.464844 0-23.121094 8.980469-25.230469 21.269531-2.109375 12.289063 4.945312 24.308594 16.699219 28.464844v18.636719c0 .15625.078125.285156.085937.429687-75.117187 4.164063-136.179687 62.089844-144.300781 136.882813-20.234375 3.703125-34.945313 21.316406-34.984375 41.890625h-8.535156c-4.710938 0-8.53125-3.820313-8.53125-8.535157v-34.132812c0-4.714844-3.820313-8.535156-8.535156-8.535156-4.710938 0-8.5312505 3.820312-8.5312505 8.535156v34.132812c0 14.140626 11.4609375 25.601563 25.5976565 25.601563h8.535156c.003906 14.183594 7.058594 27.441406 18.824219 35.371094-6.578125 6.398437-10.289063 15.183593-10.292969 24.359375h-8.53125c-14.140625 0-25.601562 11.464844-25.601562 25.601562v34.132813c0 4.714843 3.820312 8.535156 8.535156 8.535156 4.710937 0 8.53125-3.820313 8.53125-8.535156v-34.132813c0-4.710937 3.820312-8.535156 8.535156-8.535156h375.464844c4.714844 0 8.535156 3.824219 8.535156 8.535156v145.066406h-68.269531v-110.933593c0-14.136719-11.460938-25.597657-25.597657-25.597657h-204.800781c-14.136719 0-25.601562 11.460938-25.601562 25.597657v110.933593h-68.265625v-42.667968c0-4.710938-3.820313-8.53125-8.53125-8.53125-4.714844 0-8.535156 3.820312-8.535156 8.53125v51.203125c0 4.710937 3.820312 8.53125 8.535156 8.53125h409.597656c4.714844 0 8.535156-3.820313 8.535156-8.53125v-153.601563c0-14.136718-11.460937-25.601562-25.601562-25.601562h-8.53125c-.003906-9.175782-3.714844-17.960938-10.292969-24.359375 11.765625-7.929688 18.820313-21.1875 18.824219-35.371094zm-298.664063 119.464844c0-4.710938 3.820313-8.53125 8.53125-8.53125h204.800781c4.710938 0 8.53125 3.820312 8.53125 8.53125v110.933593h-221.863281zm110.929688-366.933594c4.714843 0 8.535156 3.820313 8.535156 8.535156 0 4.710938-3.820313 8.53125-8.535156 8.53125-4.710938 0-8.53125-3.820312-8.53125-8.53125 0-4.714843 3.820312-8.535156 8.53125-8.535156zm0 68.265625c75.371093.089844 136.445312 61.167969 136.535156 136.535156v68.265625h-273.066406v-68.265625c.089843-75.367187 61.164062-136.445312 136.53125-136.535156zm-170.664063 162.136719c.011719-10.847657 6.84375-20.511719 17.066406-24.140625v65.347656c-10.222656-3.628906-17.054687-13.296875-17.066406-24.140625zm332.800782 76.796875h-324.269532c0-9.425782 7.640625-17.066406 17.066406-17.066406h290.136719c9.421875 0 17.066407 7.640624 17.066407 17.066406zm8.53125-59.730469c-.011719 10.84375-6.847657 20.511719-17.066407 24.140625v-65.347656c10.21875 3.628906 17.054688 13.292968 17.066407 24.140625zm0 0"/><path d="m145.121094 247.574219c14.136718 0 25.597656-11.464844 25.597656-25.601563 0-14.136718-11.460938-25.601562-25.597656-25.601562-14.140625 0-25.601563 11.464844-25.601563 25.601562 0 14.136719 11.460938 25.601563 25.601563 25.601563zm0-34.136719c4.710937 0 8.53125 3.824219 8.53125 8.535156 0 4.710938-3.820313 8.535156-8.53125 8.535156-4.714844 0-8.535156-3.824218-8.535156-8.535156 0-4.710937 3.820312-8.535156 8.535156-8.535156zm0 0"/><path d="m298.71875 247.574219c14.140625 0 25.601562-11.464844 25.601562-25.601563 0-14.136718-11.460937-25.601562-25.601562-25.601562-14.136719 0-25.597656 11.464844-25.597656 25.601562 0 14.136719 11.460937 25.601563 25.597656 25.601563zm0-34.136719c4.714844 0 8.535156 3.824219 8.535156 8.535156 0 4.710938-3.820312 8.535156-8.535156 8.535156-4.710938 0-8.53125-3.824218-8.53125-8.535156 0-4.710937 3.820312-8.535156 8.53125-8.535156zm0 0"/><path d="m196.320312 264.640625h51.199219c4.714844 0 8.535157-3.820313 8.535157-8.535156 0-4.710938-3.820313-8.53125-8.535157-8.53125h-51.199219c-4.714843 0-8.535156 3.820312-8.535156 8.53125 0 4.714843 3.820313 8.535156 8.535156 8.535156zm0 0"/><path d="m59.785156 367.039062c0 4.714844-3.820312 8.535157-8.53125 8.535157-4.714844 0-8.535156-3.820313-8.535156-8.535157 0-4.710937 3.820312-8.53125 8.535156-8.53125 4.710938 0 8.53125 3.820313 8.53125 8.53125zm0 0"/><path d="m145.121094 401.171875c0 4.714844-3.820313 8.535156-8.535156 8.535156-4.710938 0-8.53125-3.820312-8.53125-8.535156 0-4.710937 3.820312-8.53125 8.53125-8.53125 4.714843 0 8.535156 3.820313 8.535156 8.53125zm0 0"/><path d="m315.785156 401.171875c0 4.714844-3.820312 8.535156-8.53125 8.535156-4.714844 0-8.535156-3.820312-8.535156-8.535156 0-4.710937 3.820312-8.53125 8.535156-8.53125 4.710938 0 8.53125 3.820313 8.53125 8.53125zm0 0"/><path d="m401.121094 367.039062c0 4.714844-3.820313 8.535157-8.535156 8.535157-4.710938 0-8.53125-3.820313-8.53125-8.535157 0-4.710937 3.820312-8.53125 8.53125-8.53125 4.714843 0 8.535156 3.820313 8.535156 8.53125zm0 0"/></g></svg>